<svg xmlns="http://www.w3.org/2000/svg" fill="none" viewBox="0 0 169 48">
    <path fill="#00AEEF" d="M14.015 14.878c-4.3 0-7.797-3.338-7.797-7.451C6.218 3.338 9.716 0 14.015 0c4.299 0 7.796 3.338 7.796 7.427 0 4.113-3.497 7.45-7.796 7.45zm0-10.91c-2.09 0-3.79 1.548-3.79 3.459s1.7 3.46 3.79 3.46c2.088 0 3.789-1.549 3.789-3.46 0-1.887-1.7-3.46-3.79-3.46z"/>
    <path fill="#00AEEF" d="M38.74 25.595c-.097-7.354-1.117-14.588-4.105-21.361-.607-1.355-2.817-1.234-3.448 0C25.381 15.386 14.378 22.063 2.04 23.61h-.024a2.007 2.007 0 1 0 0 4.016c12.363 1.548 23.39 8.25 29.17 19.402.632 1.234 2.842 1.355 3.45 0 2.987-6.774 4.007-14.007 4.104-21.362v-.071zm-4.007.048c-.073 5.347-.607 10.717-2.235 15.798-5.15-7.742-12.8-13.04-21.568-15.846 8.744-2.806 16.395-8.08 21.568-15.822 1.628 5.08 2.162 10.451 2.235 15.798v.072z"/>
    <path fill="#141F33" d="M97.664 30.603c-.801.653-1.773 1.088-2.744 1.088-1.239 0-1.919-.967-1.919-2.467v-5.927h5.586v-2.952h-5.586v-4.04l-3.328.895-.024 12.41c0 3.267 1.968 5.323 4.834 5.323 2.04 0 3.74-.823 5.003-1.911l-1.822-2.42zm-19.09-11.056c-4.397 0-7.918 3.435-7.918 7.693 0 4.282 3.351 7.669 8.112 7.669 2.332 0 4.979-1.04 6.485-2.54-.097-.097-2.283-2.105-2.259-2.105-.947.822-2.745 1.451-4.226 1.451-2.429 0-4.202-1.475-4.664-3.459H86.2c.025-.314.049-.702.049-1.04.024-4.234-3.28-7.669-7.675-7.669zm-4.13 5.782c.73-1.548 2.332-2.589 4.13-2.589 1.87 0 3.376.992 4.032 2.589h-8.161zm-10.978 3.943L52.221 16.305h-3.134v18.338h3.425V21.652l11.246 12.99h3.109V16.306h-3.4v12.967zm103.712 1.331c-.801.653-1.773 1.088-2.744 1.088-1.24 0-1.92-.967-1.92-2.467v-5.927h5.587v-2.952h-5.586v-4.04l-3.328.895-.024 12.41c0 3.267 1.967 5.323 4.833 5.323 2.04 0 3.74-.823 5.004-1.911l-1.822-2.42zm-33.324-2.613c0 2.105-1.481 3.774-3.643 3.774s-3.643-1.694-3.643-3.774v-8.128h-3.328v8.467c0 3.846 3.06 6.604 6.97 6.604 3.911 0 6.972-2.782 6.972-6.604v-8.467h-3.328v8.128zm-18.144-4.33h-9.715v-7.355h-3.4v18.338h3.4v-7.935h9.716v7.935h3.4V16.305h-3.4v7.355zm33.325-4.065c-1.798 0-3.376.774-4.566 2.057v-1.79h-3.328v14.78h3.328v-7.934c0-2.371 1.627-3.944 3.813-3.944 2.307 0 3.692 1.597 3.692 3.944v7.935h3.327l.024-8.42c.025-3.749-2.501-6.628-6.29-6.628zm-4.323 21.023h.145c.85 0 1.555.242 2.284.823l.704-1.646a5.352 5.352 0 0 0-3.06-.967h-.073c-2.453 0-4.518 1.717-4.518 4.427v.218c0 2.782 1.967 4.427 4.518 4.427h.073a5.352 5.352 0 0 0 3.06-.968l-.704-1.645c-.73.58-1.458.774-2.332.774h-.073c-1.409 0-2.575-.895-2.575-2.613v-.217c-.024-1.597 1.045-2.613 2.55-2.613zm12.071 5.371c-.437 0-.729-.242-1.117-.775l-.535-.943c1.045-.387 1.725-1.258 1.725-2.42v-.12c0-1.548-1.287-2.686-2.866-2.686h-3.935v8.661h1.919V44.44h.947l1.044 1.67c.802 1.137 1.41 1.79 2.478 1.79.389 0 .947-.194 1.263-.412l-.389-1.669c-.17.097-.34.17-.534.17zm-1.87-4.113c0 .508-.389.87-.923.87h-2.016v-1.91h2.016c.534 0 .923.387.923.895v.145zm12.29-2.831l-2.963 5.057-2.988-5.056h-1.773v8.684h1.919v-4.814l2.113 3.629h1.384l2.138-3.75v4.935h1.919v-8.684h-1.75z"/>
</svg>
