<svg xmlns="http://www.w3.org/2000/svg" width="19" height="13">
    <defs>
        <linearGradient id="a" x1="50%" x2="0%" y1="86.603%" y2="0%">
            <stop offset="0%" stop-color="#F7846D"/>
            <stop offset="100%" stop-color="#FFB100"/>
        </linearGradient>
    </defs>
    <path fill="#1C7FB5" fill-rule="evenodd" d="M18.232 4.447l-7.9 7.795a2.672 2.672 0 0 1-3.742 0L.769 6.498a2.585 2.585 0 0 1 0-3.692 2.67 2.67 0 0 1 3.742 0l3.95 3.897L14.489.754a2.674 2.674 0 0 1 3.743 0 2.588 2.588 0 0 1 0 3.693z"/>
    <path fill="url(#a)" d="M18.232 4.447l-7.9 7.795a2.672 2.672 0 0 1-3.742 0L.769 6.498a2.585 2.585 0 0 1 0-3.692 2.67 2.67 0 0 1 3.742 0l3.95 3.897L14.489.754a2.674 2.674 0 0 1 3.743 0 2.588 2.588 0 0 1 0 3.693z"/>
</svg>
