<svg xmlns="http://www.w3.org/2000/svg" width="26" height="26">
    <path fill="#FFF" fill-rule="evenodd" d="M20.655 25.652H5.947c-2.85 0-5.16-2.384-5.16-5.324v-2.629c0-.843.663-1.527 1.48-1.527.818 0 1.48.684 1.48 1.527v2.629c0 1.254.985 2.27 2.2 2.27h14.708c1.214 0 2.199-1.017 2.199-2.27v-2.629c0-.843.663-1.527 1.48-1.527.818 0 1.48.684 1.48 1.527v2.629c0 2.94-2.31 5.324-5.159 5.324zm-6.303-9.032c-.29.299-.67.447-1.05.446a1.452 1.452 0 0 1-1.051-.446l-3.903-4.036a1.56 1.56 0 0 1 0-2.159 1.447 1.447 0 0 1 2.093 0l1.38 1.427V2.215c0-.843.663-1.527 1.48-1.527s1.48.684 1.48 1.527v9.631l1.379-1.435a1.449 1.449 0 0 1 2.093 0 1.562 1.562 0 0 1 0 2.16l-3.901 4.049z"/>
</svg>
